<svg width="15" height="15" viewBox="0 0 64 64" fill="none" xmlns="http://www.w3.org/2000/svg">
<path d="M32 2.75C26.2149 2.75 20.5597 4.46548 15.7496 7.67951C10.9394 10.8935 7.1904 15.4618 4.97654 20.8065C2.76267 26.1512 2.18343 32.0324 3.31204 37.7064C4.44066 43.3803 7.22645 48.5922 11.3171 52.6829C15.4078 56.7736 20.6197 59.5594 26.2936 60.688C31.9676 61.8166 37.8488 61.2373 43.1935 59.0235C48.5382 56.8096 53.1065 53.0606 56.3205 48.2504C59.5345 43.4403 61.25 37.7851 61.25 32C61.2421 24.2449 58.1578 16.8096 52.6741 11.3259C47.1904 5.84218 39.7552 2.75794 32 2.75V2.75ZM32 58.75C26.7094 58.75 21.5375 57.1811 17.1385 54.2418C12.7395 51.3025 9.31088 47.1247 7.28624 42.2368C5.26159 37.3489 4.73185 31.9703 5.76401 26.7813C6.79616 21.5923 9.34385 16.8259 13.0849 13.0849C16.826 9.34384 21.5924 6.79615 26.7813 5.76399C31.9703 4.73184 37.3489 5.26158 42.2368 7.28622C47.1247 9.31087 51.3025 12.7395 54.2418 17.1385C57.1812 21.5375 58.75 26.7093 58.75 32C58.7421 39.0921 55.9212 45.8915 50.9063 50.9063C45.8915 55.9212 39.0921 58.7421 32 58.75V58.75Z" fill="#ff1420" id="id_101"></path>
<path d="M47.0001 24.42C47.9808 23.4343 48.5314 22.1005 48.5314 20.71C48.5314 19.3196 47.9808 17.9857 47.0001 17V17C46.0144 16.0193 44.6806 15.4687 43.2901 15.4688C41.8997 15.4688 40.5658 16.0193 39.5801 17L33.9401 22.64C33.4186 23.1411 32.7234 23.421 32.0001 23.421C31.2768 23.421 30.5816 23.1411 30.0601 22.64L24.4201 17C23.4249 16.0727 22.1086 15.5678 20.7484 15.5918C19.3883 15.6158 18.0906 16.1668 17.1288 17.1287C16.1669 18.0905 15.6159 19.3882 15.5919 20.7484C15.5679 22.1085 16.0727 23.4248 17.0001 24.42L22.6401 30.06C22.8965 30.3139 23.1 30.616 23.2389 30.949C23.3778 31.282 23.4494 31.6392 23.4494 32C23.4494 32.3608 23.3778 32.718 23.2389 33.051C23.1 33.384 22.8965 33.6862 22.6401 33.94L17.0001 39.58C16.0727 40.5752 15.5679 41.8916 15.5919 43.2517C15.6159 44.6118 16.1669 45.9095 17.1288 46.8714C18.0906 47.8333 19.3883 48.3842 20.7484 48.4082C22.1086 48.4322 23.4249 47.9274 24.4201 47L30.0601 41.36C30.5816 40.8589 31.2768 40.579 32.0001 40.579C32.7234 40.579 33.4186 40.8589 33.9401 41.36L39.5801 47C40.5753 47.9274 41.8917 48.4322 43.2518 48.4082C44.6119 48.3842 45.9096 47.8333 46.8715 46.8714C47.8334 45.9095 48.3843 44.6118 48.4083 43.2517C48.4323 41.8916 47.9275 40.5752 47.0001 39.58L41.3601 33.94C41.1037 33.6862 40.9002 33.384 40.7613 33.051C40.6224 32.718 40.5509 32.3608 40.5509 32C40.5509 31.6392 40.6224 31.282 40.7613 30.949C40.9002 30.616 41.1037 30.3139 41.3601 30.06L47.0001 24.42Z" fill="#ff000d" id="id_102"></path>
</svg>